<?xml version="1.0" encoding="UTF-8" standalone="no"?>
<!DOCTYPE svg PUBLIC "-//W3C//DTD SVG 1.1//EN"
 "http://www.w3.org/Graphics/SVG/1.1/DTD/svg11.dtd">
<!-- Generated by graphviz version 2.38.0 (20140413.2041)
 -->
<!-- Title: model Pages: 1 -->
<svg width="421pt" height="194pt"
 viewBox="0.00 0.00 421.00 194.00" xmlns="http://www.w3.org/2000/svg" xmlns:xlink="http://www.w3.org/1999/xlink">
<g id="graph0" class="graph" transform="scale(1 1) rotate(0) translate(4 190)">
<title>model</title>
<polygon fill="white" stroke="none" points="-4,4 -4,-190 417,-190 417,4 -4,4"/>
<!-- Calculator -->
<g id="node1" class="node"><title>Calculator</title>
<g id="a_node1"><a xlink:href="javascript:Action.selectClass(&quot;Calculator&quot;);" xlink:title="class Calculator
">
<text text-anchor="start" x="103.344" y="-162.4" font-family="Times,serif" font-size="14.00"> &#160;&#160;&#160;Calculator &#160;&#160;&#160;</text>
<polygon fill="none" stroke="black" points="92.5,-148 92.5,-186 200.5,-186 200.5,-148 92.5,-148"/>
</a>
</g>
</g>
<!-- BasicCalculator -->
<g id="node2" class="node"><title>BasicCalculator</title>
<g id="a_node2"><a xlink:href="javascript:Action.selectClass(&quot;BasicCalculator&quot;);" xlink:title="class BasicCalculator
">
<text text-anchor="start" x="11.2931" y="-88.4" font-family="Times,serif" font-size="14.00"> &#160;&#160;&#160;BasicCalculator &#160;&#160;&#160;</text>
<polygon fill="none" stroke="black" points="0,-74 0,-112 139,-112 139,-74 0,-74"/>
</a>
</g>
</g>
<!-- BasicCalculator&#45;&gt;Calculator -->
<g id="edge1" class="edge"><title>BasicCalculator&#45;&gt;Calculator</title>
<path fill="none" stroke="black" d="M95.999,-112.24C110.79,-122.42 128.207,-134.408 138.239,-141.314"/>
<polygon fill="none" stroke="black" points="136.278,-144.213 146.5,-147 140.247,-138.447 136.278,-144.213"/>
</g>
<!-- TrigCalculator -->
<g id="node3" class="node"><title>TrigCalculator</title>
<g id="a_node3"><a xlink:href="javascript:Action.selectClass(&quot;TrigCalculator&quot;);" xlink:title="class TrigCalculator
">
<text text-anchor="start" x="168.292" y="-88.4" font-family="Times,serif" font-size="14.00"> &#160;&#160;&#160;TrigCalculator &#160;&#160;&#160;</text>
<polygon fill="none" stroke="black" points="157.5,-74 157.5,-112 289.5,-112 289.5,-74 157.5,-74"/>
</a>
</g>
</g>
<!-- TrigCalculator&#45;&gt;Calculator -->
<g id="edge2" class="edge"><title>TrigCalculator&#45;&gt;Calculator</title>
<path fill="none" stroke="black" d="M197.001,-112.24C182.21,-122.42 164.793,-134.408 154.761,-141.314"/>
<polygon fill="none" stroke="black" points="152.753,-138.447 146.5,-147 156.722,-144.213 152.753,-138.447"/>
</g>
<!-- RighttriangleCalculator -->
<g id="node4" class="node"><title>RighttriangleCalculator</title>
<g id="a_node4"><a xlink:href="javascript:Action.selectClass(&quot;RighttriangleCalculator&quot;);" xlink:title="class RighttriangleCalculator
">
<text text-anchor="start" x="44.4039" y="-14.4" font-family="Times,serif" font-size="14.00"> &#160;&#160;&#160;RighttriangleCalculator &#160;&#160;&#160;</text>
<polygon fill="none" stroke="black" points="33.5,-0 33.5,-38 215.5,-38 215.5,-0 33.5,-0"/>
</a>
</g>
</g>
<!-- RighttriangleCalculator&#45;&gt;TrigCalculator -->
<g id="edge3" class="edge"><title>RighttriangleCalculator&#45;&gt;TrigCalculator</title>
<path fill="none" stroke="black" d="M158.293,-38.0914C178.235,-48.767 201.97,-61.4737 214.582,-68.2258"/>
<polygon fill="none" stroke="black" points="213.032,-71.3659 223.5,-73 216.336,-65.1946 213.032,-71.3659"/>
</g>
<!-- TrigfunctionCalculator -->
<g id="node5" class="node"><title>TrigfunctionCalculator</title>
<g id="a_node5"><a xlink:href="javascript:Action.selectClass(&quot;TrigfunctionCalculator&quot;);" xlink:title="class TrigfunctionCalculator
">
<text text-anchor="start" x="245.463" y="-14.4" font-family="Times,serif" font-size="14.00"> &#160;&#160;&#160;TrigfunctionCalculator &#160;&#160;&#160;</text>
<polygon fill="none" stroke="black" points="234,-0 234,-38 413,-38 413,-0 234,-0"/>
</a>
</g>
</g>
<!-- TrigfunctionCalculator&#45;&gt;TrigCalculator -->
<g id="edge4" class="edge"><title>TrigfunctionCalculator&#45;&gt;TrigCalculator</title>
<path fill="none" stroke="black" d="M289.365,-38.0914C269.223,-48.767 245.248,-61.4737 232.508,-68.2258"/>
<polygon fill="none" stroke="black" points="230.697,-65.2245 223.5,-73 233.975,-71.4095 230.697,-65.2245"/>
</g>
</g>
</svg>
