<?xml version="1.0" encoding="UTF-8" standalone="no"?>
<!DOCTYPE svg PUBLIC "-//W3C//DTD SVG 1.1//EN"
 "http://www.w3.org/Graphics/SVG/1.1/DTD/svg11.dtd">
<!-- Generated by graphviz version 2.38.0 (20140413.2041)
 -->
<!-- Title: model Pages: 1 -->
<svg width="1418pt" height="451pt"
 viewBox="0.00 0.00 1418.00 451.40" xmlns="http://www.w3.org/2000/svg" xmlns:xlink="http://www.w3.org/1999/xlink">
<g id="graph0" class="graph" transform="scale(1 1) rotate(0) translate(4 447.4)">
<title>model</title>
<polygon fill="white" stroke="none" points="-4,4 -4,-447.4 1414,-447.4 1414,4 -4,4"/>
<g id="clust1" class="cluster"><title>clusterCalculator_calculatorSm</title>
<polygon fill="none" stroke="black" stroke-width="0.5" points="8,-96.8 8,-402.6 535,-402.6 535,-96.8 8,-96.8"/>
<text text-anchor="middle" x="271.5" y="-386" font-family="Times,serif" font-size="14.00">sm Calculator calculatorSm</text>
</g>
<g id="clust2" class="cluster"><title>clusterCalculator_BasicCalculatorSm</title>
<polygon fill="none" stroke="black" stroke-width="0.5" points="543,-96.8 543,-402.6 882,-402.6 882,-96.8 543,-96.8"/>
<text text-anchor="middle" x="712.5" y="-386" font-family="Times,serif" font-size="14.00">sm Calculator BasicCalculatorSm</text>
</g>
<g id="clust3" class="cluster"><title>clusterCalculator_rightTriangleCalculatorSm</title>
<polygon fill="none" stroke="black" stroke-width="0.5" points="890,-8 890,-435.4 1141,-435.4 1141,-8 890,-8"/>
<text text-anchor="middle" x="1015.5" y="-418.8" font-family="Times,serif" font-size="14.00">sm Calculator rightTriangleCalculatorSm</text>
</g>
<g id="clust4" class="cluster"><title>clusterCalculator_rightTriangleCalculatorSm_unit</title>
<path fill="none" stroke="black" stroke-width="0.5" d="M1050,-185.6C1050,-185.6 1121,-185.6 1121,-185.6 1127,-185.6 1133,-191.6 1133,-197.6 1133,-197.6 1133,-390.6 1133,-390.6 1133,-396.6 1127,-402.6 1121,-402.6 1121,-402.6 1050,-402.6 1050,-402.6 1044,-402.6 1038,-396.6 1038,-390.6 1038,-390.6 1038,-197.6 1038,-197.6 1038,-191.6 1044,-185.6 1050,-185.6"/>
<text text-anchor="middle" x="1085.5" y="-386" font-family="Times,serif" font-size="14.00">unit</text>
</g>
<g id="clust5" class="cluster"><title>clusterCalculator_TrigfunctionCalculatorSm</title>
<polygon fill="none" stroke="black" stroke-width="0.5" points="1149,-96.8 1149,-435.4 1402,-435.4 1402,-96.8 1149,-96.8"/>
<text text-anchor="middle" x="1275.5" y="-418.8" font-family="Times,serif" font-size="14.00">sm Calculator TrigfunctionCalculatorSm</text>
</g>
<g id="clust6" class="cluster"><title>clusterCalculator_TrigfunctionCalculatorSm_unit</title>
<path fill="none" stroke="black" stroke-width="0.5" d="M1311,-185.6C1311,-185.6 1382,-185.6 1382,-185.6 1388,-185.6 1394,-191.6 1394,-197.6 1394,-197.6 1394,-390.6 1394,-390.6 1394,-396.6 1388,-402.6 1382,-402.6 1382,-402.6 1311,-402.6 1311,-402.6 1305,-402.6 1299,-396.6 1299,-390.6 1299,-390.6 1299,-197.6 1299,-197.6 1299,-191.6 1305,-185.6 1311,-185.6"/>
<text text-anchor="middle" x="1346.5" y="-386" font-family="Times,serif" font-size="14.00">unit</text>
</g>
<!-- start_Calculator_calculatorSm -->
<g id="node1" class="node"><title>start_Calculator_calculatorSm</title>
<g id="a_node1"><a xlink:title="Class Calculator, SM calculatorSm, State start">
<ellipse fill="black" stroke="black" cx="227" cy="-362.6" rx="7.2" ry="7.2"/>
</a>
</g>
</g>
<!-- Calculator_calculatorSm_BasicCalculator -->
<g id="node2" class="node"><title>Calculator_calculatorSm_BasicCalculator</title>
<g id="a_node2"><a xlink:title="Class Calculator, SM calculatorSm, State BasicCalculator">
<path fill="none" stroke="black" d="M267.915,-318.4C267.915,-318.4 186.085,-318.4 186.085,-318.4 180.085,-318.4 174.085,-312.4 174.085,-306.4 174.085,-306.4 174.085,-294.4 174.085,-294.4 174.085,-288.4 180.085,-282.4 186.085,-282.4 186.085,-282.4 267.915,-282.4 267.915,-282.4 273.915,-282.4 279.915,-288.4 279.915,-294.4 279.915,-294.4 279.915,-306.4 279.915,-306.4 279.915,-312.4 273.915,-318.4 267.915,-318.4"/>
<text text-anchor="middle" x="227" y="-296.2" font-family="Times,serif" font-size="14.00">BasicCalculator</text>
</a>
</g>
</g>
<!-- start_Calculator_calculatorSm&#45;&gt;Calculator_calculatorSm_BasicCalculator -->
<g id="edge1" class="edge"><title>start_Calculator_calculatorSm&#45;&gt;Calculator_calculatorSm_BasicCalculator</title>
<g id="a_edge1"><a xlink:title="start to BasicCalculator">
<path fill="none" stroke="black" d="M227,-355.158C227,-348.787 227,-338.597 227,-328.793"/>
<polygon fill="black" stroke="black" points="230.5,-328.505 227,-318.505 223.5,-328.505 230.5,-328.505"/>
</a>
</g>
</g>
<!-- Calculator_calculatorSm_BasicCalculator&#45;&gt;Calculator_calculatorSm_BasicCalculator -->
<g id="edge2" class="edge"><title>Calculator_calculatorSm_BasicCalculator&#45;&gt;Calculator_calculatorSm_BasicCalculator</title>
<g id="a_edge2"><a xlink:title="From BasicCalculator to BasicCalculator on menuBasic">
<path fill="none" stroke="black" d="M279.73,-306.871C290.224,-306.143 297.707,-303.986 297.707,-300.4 297.707,-298.103 294.636,-296.392 289.669,-295.267"/>
<polygon fill="black" stroke="black" points="290.107,-291.795 279.73,-293.929 289.173,-298.732 290.107,-291.795"/>
</a>
</g>
<text text-anchor="middle" x="328.81" y="-296.2" font-family="Times,serif" font-size="14.00">menuBasic</text>
</g>
<!-- Calculator_calculatorSm_rightTriangleCalculator -->
<g id="node3" class="node"><title>Calculator_calculatorSm_rightTriangleCalculator</title>
<g id="a_node3"><a xlink:title="Class Calculator, SM calculatorSm, State rightTriangleCalculator">
<path fill="none" stroke="black" d="M290.178,-229.6C290.178,-229.6 165.822,-229.6 165.822,-229.6 159.822,-229.6 153.822,-223.6 153.822,-217.6 153.822,-217.6 153.822,-205.6 153.822,-205.6 153.822,-199.6 159.822,-193.6 165.822,-193.6 165.822,-193.6 290.178,-193.6 290.178,-193.6 296.178,-193.6 302.178,-199.6 302.178,-205.6 302.178,-205.6 302.178,-217.6 302.178,-217.6 302.178,-223.6 296.178,-229.6 290.178,-229.6"/>
<text text-anchor="middle" x="228" y="-207.4" font-family="Times,serif" font-size="14.00">rightTriangleCalculator</text>
</a>
</g>
</g>
<!-- Calculator_calculatorSm_BasicCalculator&#45;&gt;Calculator_calculatorSm_rightTriangleCalculator -->
<g id="edge5" class="edge"><title>Calculator_calculatorSm_BasicCalculator&#45;&gt;Calculator_calculatorSm_rightTriangleCalculator</title>
<g id="a_edge5"><a xlink:title="From BasicCalculator to rightTriangleCalculator on menuRightTriangle">
<path fill="none" stroke="black" d="M177.944,-282.18C161.619,-273.527 149.577,-261.833 158.353,-247.6 161.123,-243.108 164.666,-239.172 168.681,-235.727"/>
<polygon fill="black" stroke="black" points="170.915,-238.429 176.907,-229.691 166.774,-232.786 170.915,-238.429"/>
</a>
</g>
<text text-anchor="middle" x="213.823" y="-251.8" font-family="Times,serif" font-size="14.00">menuRightTriangle</text>
</g>
<!-- Calculator_calculatorSm_trigfunctionCalculator -->
<g id="node4" class="node"><title>Calculator_calculatorSm_trigfunctionCalculator</title>
<g id="a_node4"><a xlink:title="Class Calculator, SM calculatorSm, State trigfunctionCalculator">
<path fill="none" stroke="black" d="M283.412,-140.8C283.412,-140.8 166.588,-140.8 166.588,-140.8 160.588,-140.8 154.588,-134.8 154.588,-128.8 154.588,-128.8 154.588,-116.8 154.588,-116.8 154.588,-110.8 160.588,-104.8 166.588,-104.8 166.588,-104.8 283.412,-104.8 283.412,-104.8 289.412,-104.8 295.412,-110.8 295.412,-116.8 295.412,-116.8 295.412,-128.8 295.412,-128.8 295.412,-134.8 289.412,-140.8 283.412,-140.8"/>
<text text-anchor="middle" x="225" y="-118.6" font-family="Times,serif" font-size="14.00">trigfunctionCalculator</text>
</a>
</g>
</g>
<!-- Calculator_calculatorSm_BasicCalculator&#45;&gt;Calculator_calculatorSm_trigfunctionCalculator -->
<g id="edge8" class="edge"><title>Calculator_calculatorSm_BasicCalculator&#45;&gt;Calculator_calculatorSm_trigfunctionCalculator</title>
<g id="a_edge8"><a xlink:title="From BasicCalculator to trigfunctionCalculator on menuTrigfunction">
<path fill="none" stroke="black" d="M173.927,-295.157C130.735,-288.584 72.3185,-271.895 43.1346,-229.6 32.0284,-213.504 31.7465,-201.497 43.1346,-185.6 66.3091,-153.249 107.397,-137.63 144.662,-130.174"/>
<polygon fill="black" stroke="black" points="145.339,-133.608 154.545,-128.364 144.078,-126.722 145.339,-133.608"/>
</a>
</g>
<text text-anchor="middle" x="94.9327" y="-207.4" font-family="Times,serif" font-size="14.00">menuTrigfunction</text>
</g>
<!-- Calculator_calculatorSm_rightTriangleCalculator&#45;&gt;Calculator_calculatorSm_BasicCalculator -->
<g id="edge3" class="edge"><title>Calculator_calculatorSm_rightTriangleCalculator&#45;&gt;Calculator_calculatorSm_BasicCalculator</title>
<g id="a_edge3"><a xlink:title="From rightTriangleCalculator to BasicCalculator on menuBasic">
<path fill="none" stroke="black" d="M256.744,-229.691C268.628,-239.098 278.325,-251.468 272,-264.4 270.092,-268.301 267.516,-271.893 264.558,-275.167"/>
<polygon fill="black" stroke="black" points="261.954,-272.812 257.094,-282.226 266.764,-277.898 261.954,-272.812"/>
</a>
</g>
<text text-anchor="middle" x="305.103" y="-251.8" font-family="Times,serif" font-size="14.00">menuBasic</text>
</g>
<!-- Calculator_calculatorSm_rightTriangleCalculator&#45;&gt;Calculator_calculatorSm_rightTriangleCalculator -->
<g id="edge6" class="edge"><title>Calculator_calculatorSm_rightTriangleCalculator&#45;&gt;Calculator_calculatorSm_rightTriangleCalculator</title>
<g id="a_edge6"><a xlink:title="From rightTriangleCalculator to rightTriangleCalculator on menuRightTriangle">
<path fill="none" stroke="black" d="M302.432,-219.004C312.999,-217.806 320.089,-215.338 320.089,-211.6 320.089,-209.205 317.179,-207.332 312.31,-205.98"/>
<polygon fill="black" stroke="black" points="312.895,-202.529 302.432,-204.196 311.651,-209.417 312.895,-202.529"/>
</a>
</g>
<text text-anchor="middle" x="374.912" y="-207.4" font-family="Times,serif" font-size="14.00">menuRightTriangle</text>
</g>
<!-- Calculator_calculatorSm_rightTriangleCalculator&#45;&gt;Calculator_calculatorSm_trigfunctionCalculator -->
<g id="edge9" class="edge"><title>Calculator_calculatorSm_rightTriangleCalculator&#45;&gt;Calculator_calculatorSm_trigfunctionCalculator</title>
<g id="a_edge9"><a xlink:title="From rightTriangleCalculator to trigfunctionCalculator on menuTrigfunction">
<path fill="none" stroke="black" d="M178.527,-193.511C171.201,-188.836 164.619,-182.958 160.135,-175.6 153.255,-164.311 159.635,-154.461 170.655,-146.468"/>
<polygon fill="black" stroke="black" points="172.775,-149.27 179.376,-140.983 169.047,-143.344 172.775,-149.27"/>
</a>
</g>
<text text-anchor="middle" x="211.933" y="-163" font-family="Times,serif" font-size="14.00">menuTrigfunction</text>
</g>
<!-- Calculator_calculatorSm_trigfunctionCalculator&#45;&gt;Calculator_calculatorSm_BasicCalculator -->
<g id="edge4" class="edge"><title>Calculator_calculatorSm_trigfunctionCalculator&#45;&gt;Calculator_calculatorSm_BasicCalculator</title>
<g id="a_edge4"><a xlink:title="From trigfunctionCalculator to BasicCalculator on menuBasic">
<path fill="none" stroke="black" d="M295.283,-134.048C351.182,-143.922 422.503,-161.004 438,-185.6 476.644,-246.935 365.024,-277.488 289.726,-290.753"/>
<polygon fill="black" stroke="black" points="289.093,-287.31 279.821,-292.436 290.266,-294.211 289.093,-287.31"/>
</a>
</g>
<text text-anchor="middle" x="477.103" y="-207.4" font-family="Times,serif" font-size="14.00">menuBasic</text>
</g>
<!-- Calculator_calculatorSm_trigfunctionCalculator&#45;&gt;Calculator_calculatorSm_rightTriangleCalculator -->
<g id="edge7" class="edge"><title>Calculator_calculatorSm_trigfunctionCalculator&#45;&gt;Calculator_calculatorSm_rightTriangleCalculator</title>
<g id="a_edge7"><a xlink:title="From trigfunctionCalculator to rightTriangleCalculator on menuRightTriangle">
<path fill="none" stroke="black" d="M252.045,-141.042C257.685,-146.033 262.865,-152.001 266,-158.8 270.434,-168.416 266.354,-178.023 259.463,-186.307"/>
<polygon fill="black" stroke="black" points="256.941,-183.88 252.51,-193.504 261.975,-188.744 256.941,-183.88"/>
</a>
</g>
<text text-anchor="middle" x="322.823" y="-163" font-family="Times,serif" font-size="14.00">menuRightTriangle</text>
</g>
<!-- Calculator_calculatorSm_trigfunctionCalculator&#45;&gt;Calculator_calculatorSm_trigfunctionCalculator -->
<g id="edge10" class="edge"><title>Calculator_calculatorSm_trigfunctionCalculator&#45;&gt;Calculator_calculatorSm_trigfunctionCalculator</title>
<g id="a_edge10"><a xlink:title="From trigfunctionCalculator to trigfunctionCalculator on menuTrigfunction">
<path fill="none" stroke="black" d="M295.234,-130.323C305.938,-129.175 313.206,-126.667 313.206,-122.8 313.206,-120.323 310.223,-118.403 305.265,-117.042"/>
<polygon fill="black" stroke="black" points="305.69,-113.563 295.234,-115.277 304.477,-120.457 305.69,-113.563"/>
</a>
</g>
<text text-anchor="middle" x="364.138" y="-118.6" font-family="Times,serif" font-size="14.00">menuTrigfunction</text>
</g>
<!-- start_Calculator_BasicCalculatorSm -->
<g id="node5" class="node"><title>start_Calculator_BasicCalculatorSm</title>
<g id="a_node5"><a xlink:title="Class Calculator, SM BasicCalculatorSm, State start">
<ellipse fill="black" stroke="black" cx="781" cy="-362.6" rx="7.2" ry="7.2"/>
</a>
</g>
</g>
<!-- Calculator_BasicCalculatorSm_enterfirstvalue -->
<g id="node6" class="node"><title>Calculator_BasicCalculatorSm_enterfirstvalue</title>
<g id="a_node6"><a xlink:title="Class Calculator, SM BasicCalculatorSm, State enterfirstvalue">
<path fill="none" stroke="black" d="M817.347,-318.4C817.347,-318.4 744.653,-318.4 744.653,-318.4 738.653,-318.4 732.653,-312.4 732.653,-306.4 732.653,-306.4 732.653,-294.4 732.653,-294.4 732.653,-288.4 738.653,-282.4 744.653,-282.4 744.653,-282.4 817.347,-282.4 817.347,-282.4 823.347,-282.4 829.347,-288.4 829.347,-294.4 829.347,-294.4 829.347,-306.4 829.347,-306.4 829.347,-312.4 823.347,-318.4 817.347,-318.4"/>
<text text-anchor="middle" x="781" y="-296.2" font-family="Times,serif" font-size="14.00">enterfirstvalue</text>
</a>
</g>
</g>
<!-- start_Calculator_BasicCalculatorSm&#45;&gt;Calculator_BasicCalculatorSm_enterfirstvalue -->
<g id="edge11" class="edge"><title>start_Calculator_BasicCalculatorSm&#45;&gt;Calculator_BasicCalculatorSm_enterfirstvalue</title>
<g id="a_edge11"><a xlink:title="start to enterfirstvalue">
<path fill="none" stroke="black" d="M781,-355.158C781,-348.787 781,-338.597 781,-328.793"/>
<polygon fill="black" stroke="black" points="784.5,-328.505 781,-318.505 777.5,-328.505 784.5,-328.505"/>
</a>
</g>
</g>
<!-- Calculator_BasicCalculatorSm_enterfirstvalue&#45;&gt;Calculator_BasicCalculatorSm_enterfirstvalue -->
<g id="edge12" class="edge"><title>Calculator_BasicCalculatorSm_enterfirstvalue&#45;&gt;Calculator_BasicCalculatorSm_enterfirstvalue</title>
<g id="a_edge12"><a xlink:title="From enterfirstvalue to enterfirstvalue on clear">
<path fill="none" stroke="black" d="M829.363,-306.951C839.831,-306.31 847.424,-304.127 847.424,-300.4 847.424,-298.013 844.308,-296.259 839.316,-295.138"/>
<polygon fill="black" stroke="black" points="839.729,-291.662 829.363,-293.849 838.831,-298.604 839.729,-291.662"/>
</a>
</g>
<text text-anchor="middle" x="861.021" y="-296.2" font-family="Times,serif" font-size="14.00">clear</text>
</g>
<!-- Calculator_BasicCalculatorSm_entersecondvalue -->
<g id="node7" class="node"><title>Calculator_BasicCalculatorSm_entersecondvalue</title>
<g id="a_node7"><a xlink:title="Class Calculator, SM BasicCalculatorSm, State entersecondvalue">
<path fill="none" stroke="black" d="M757.674,-229.6C757.674,-229.6 668.326,-229.6 668.326,-229.6 662.326,-229.6 656.326,-223.6 656.326,-217.6 656.326,-217.6 656.326,-205.6 656.326,-205.6 656.326,-199.6 662.326,-193.6 668.326,-193.6 668.326,-193.6 757.674,-193.6 757.674,-193.6 763.674,-193.6 769.674,-199.6 769.674,-205.6 769.674,-205.6 769.674,-217.6 769.674,-217.6 769.674,-223.6 763.674,-229.6 757.674,-229.6"/>
<text text-anchor="middle" x="713" y="-207.4" font-family="Times,serif" font-size="14.00">entersecondvalue</text>
</a>
</g>
</g>
<!-- Calculator_BasicCalculatorSm_enterfirstvalue&#45;&gt;Calculator_BasicCalculatorSm_entersecondvalue -->
<g id="edge15" class="edge"><title>Calculator_BasicCalculatorSm_enterfirstvalue&#45;&gt;Calculator_BasicCalculatorSm_entersecondvalue</title>
<g id="a_edge15"><a xlink:title="From enterfirstvalue to entersecondvalue on enteroperation&#13;Transition Action:
 &#160;&#160;&#160;&#160;value1=true,operation=true">
<path fill="none" stroke="black" d="M732.591,-291.954C701.705,-286.101 665.759,-276.853 656.321,-264.4 648.339,-253.869 655.036,-243.727 666.242,-235.252"/>
<polygon fill="black" stroke="black" points="668.227,-238.134 674.595,-229.666 664.336,-232.316 668.227,-238.134"/>
</a>
</g>
<text text-anchor="middle" x="714.84" y="-251.8" font-family="Times,serif" font-size="14.00">enteroperation / {...}</text>
</g>
<!-- Calculator_BasicCalculatorSm_entersecondvalue&#45;&gt;Calculator_BasicCalculatorSm_enterfirstvalue -->
<g id="edge13" class="edge"><title>Calculator_BasicCalculatorSm_entersecondvalue&#45;&gt;Calculator_BasicCalculatorSm_enterfirstvalue</title>
<g id="a_edge13"><a xlink:title="From entersecondvalue to enterfirstvalue on clear">
<path fill="none" stroke="black" d="M757.164,-229.783C764.512,-234.507 771.269,-240.378 776,-247.6 780.665,-254.721 782.573,-263.616 783.122,-272.016"/>
<polygon fill="black" stroke="black" points="779.624,-272.245 783.196,-282.22 786.624,-272.195 779.624,-272.245"/>
</a>
</g>
<text text-anchor="middle" x="795.597" y="-251.8" font-family="Times,serif" font-size="14.00">clear</text>
</g>
<!-- Calculator_BasicCalculatorSm_result -->
<g id="node8" class="node"><title>Calculator_BasicCalculatorSm_result</title>
<g id="a_node8"><a xlink:title="Class Calculator, SM BasicCalculatorSm, State result">
<path fill="none" stroke="black" d="M775,-140.8C775,-140.8 727,-140.8 727,-140.8 721,-140.8 715,-134.8 715,-128.8 715,-128.8 715,-116.8 715,-116.8 715,-110.8 721,-104.8 727,-104.8 727,-104.8 775,-104.8 775,-104.8 781,-104.8 787,-110.8 787,-116.8 787,-116.8 787,-128.8 787,-128.8 787,-134.8 781,-140.8 775,-140.8"/>
<text text-anchor="middle" x="751" y="-118.6" font-family="Times,serif" font-size="14.00">result</text>
</a>
</g>
</g>
<!-- Calculator_BasicCalculatorSm_entersecondvalue&#45;&gt;Calculator_BasicCalculatorSm_result -->
<g id="edge17" class="edge"><title>Calculator_BasicCalculatorSm_entersecondvalue&#45;&gt;Calculator_BasicCalculatorSm_result</title>
<g id="a_edge17"><a xlink:title="From entersecondvalue to result on enteroperation&#13;Transition Action:
 &#160;&#160;&#160;&#160;value2=true">
<path fill="none" stroke="black" d="M656.405,-208.37C604.125,-204.22 538.448,-192.398 566.278,-158.8 583.53,-137.972 655.849,-129.443 704.714,-126.018"/>
<polygon fill="black" stroke="black" points="705.007,-129.506 714.757,-125.362 704.55,-122.521 705.007,-129.506"/>
</a>
</g>
<text text-anchor="middle" x="646.361" y="-163" font-family="Times,serif" font-size="14.00">enteroperation / value2=true</text>
</g>
<!-- Calculator_BasicCalculatorSm_result&#45;&gt;Calculator_BasicCalculatorSm_enterfirstvalue -->
<g id="edge14" class="edge"><title>Calculator_BasicCalculatorSm_result&#45;&gt;Calculator_BasicCalculatorSm_enterfirstvalue</title>
<g id="a_edge14"><a xlink:title="From result to enterfirstvalue on clear">
<path fill="none" stroke="black" d="M787.036,-125.336C811.109,-128.466 841.161,-136.89 857,-158.8 871.894,-179.403 827.362,-243.423 813,-264.4 810.711,-267.744 808.119,-271.095 805.425,-274.329"/>
<polygon fill="black" stroke="black" points="802.612,-272.228 798.635,-282.049 807.868,-276.851 802.612,-272.228"/>
</a>
</g>
<text text-anchor="middle" x="871.598" y="-207.4" font-family="Times,serif" font-size="14.00">clear</text>
</g>
<!-- Calculator_BasicCalculatorSm_result&#45;&gt;Calculator_BasicCalculatorSm_entersecondvalue -->
<g id="edge16" class="edge"><title>Calculator_BasicCalculatorSm_result&#45;&gt;Calculator_BasicCalculatorSm_entersecondvalue</title>
<g id="a_edge16"><a xlink:title="From result to entersecondvalue on enteroperation&#13;Transition Action:
 &#160;&#160;&#160;&#160;value1=true,operation=true">
<path fill="none" stroke="black" d="M743.784,-141.117C739.545,-151.206 734.045,-164.156 729,-175.6 727.747,-178.443 726.421,-181.408 725.09,-184.356"/>
<polygon fill="black" stroke="black" points="721.862,-183 720.906,-193.552 728.233,-185.9 721.862,-183"/>
</a>
</g>
<text text-anchor="middle" x="794.84" y="-163" font-family="Times,serif" font-size="14.00">enteroperation / {...}</text>
</g>
<!-- start_Calculator_rightTriangleCalculatorSm -->
<g id="node9" class="node"><title>start_Calculator_rightTriangleCalculatorSm</title>
<g id="a_node9"><a xlink:title="Class Calculator, SM rightTriangleCalculatorSm, State start">
<ellipse fill="black" stroke="black" cx="994" cy="-362.6" rx="7.2" ry="7.2"/>
</a>
</g>
</g>
<!-- Calculator_rightTriangleCalculatorSm_idle -->
<g id="node10" class="node"><title>Calculator_rightTriangleCalculatorSm_idle</title>
<g id="a_node10"><a xlink:title="Class Calculator, SM rightTriangleCalculatorSm, State idle">
<path fill="none" stroke="black" d="M1018,-318.4C1018,-318.4 970,-318.4 970,-318.4 964,-318.4 958,-312.4 958,-306.4 958,-306.4 958,-294.4 958,-294.4 958,-288.4 964,-282.4 970,-282.4 970,-282.4 1018,-282.4 1018,-282.4 1024,-282.4 1030,-288.4 1030,-294.4 1030,-294.4 1030,-306.4 1030,-306.4 1030,-312.4 1024,-318.4 1018,-318.4"/>
<text text-anchor="middle" x="994" y="-296.2" font-family="Times,serif" font-size="14.00">idle</text>
</a>
</g>
</g>
<!-- start_Calculator_rightTriangleCalculatorSm&#45;&gt;Calculator_rightTriangleCalculatorSm_idle -->
<g id="edge18" class="edge"><title>start_Calculator_rightTriangleCalculatorSm&#45;&gt;Calculator_rightTriangleCalculatorSm_idle</title>
<g id="a_edge18"><a xlink:title="start to idle">
<path fill="none" stroke="black" d="M994,-355.158C994,-348.787 994,-338.597 994,-328.793"/>
<polygon fill="black" stroke="black" points="997.5,-328.505 994,-318.505 990.5,-328.505 997.5,-328.505"/>
</a>
</g>
</g>
<!-- Calculator_rightTriangleCalculatorSm_enterinfo -->
<g id="node11" class="node"><title>Calculator_rightTriangleCalculatorSm_enterinfo</title>
<g id="a_node11"><a xlink:title="Class Calculator, SM rightTriangleCalculatorSm, State enterinfo">
<path fill="none" stroke="black" d="M998,-229.6C998,-229.6 950,-229.6 950,-229.6 944,-229.6 938,-223.6 938,-217.6 938,-217.6 938,-205.6 938,-205.6 938,-199.6 944,-193.6 950,-193.6 950,-193.6 998,-193.6 998,-193.6 1004,-193.6 1010,-199.6 1010,-205.6 1010,-205.6 1010,-217.6 1010,-217.6 1010,-223.6 1004,-229.6 998,-229.6"/>
<text text-anchor="middle" x="974" y="-207.4" font-family="Times,serif" font-size="14.00">enterinfo</text>
</a>
</g>
</g>
<!-- Calculator_rightTriangleCalculatorSm_idle&#45;&gt;Calculator_rightTriangleCalculatorSm_enterinfo -->
<g id="edge21" class="edge"><title>Calculator_rightTriangleCalculatorSm_idle&#45;&gt;Calculator_rightTriangleCalculatorSm_enterinfo</title>
<g id="a_edge21"><a xlink:title="From idle to enterinfo on entervalue">
<path fill="none" stroke="black" d="M957.744,-291.036C943.672,-285.828 928.975,-277.521 920.7,-264.4 914.063,-253.876 919.987,-243.931 929.951,-235.622"/>
<polygon fill="black" stroke="black" points="932.193,-238.32 938.217,-229.605 928.073,-232.661 932.193,-238.32"/>
</a>
</g>
<text text-anchor="middle" x="950.15" y="-251.8" font-family="Times,serif" font-size="14.00">entervalue</text>
</g>
<!-- Calculator_rightTriangleCalculatorSm_enterinfo&#45;&gt;Calculator_rightTriangleCalculatorSm_idle -->
<g id="edge19" class="edge"><title>Calculator_rightTriangleCalculatorSm_enterinfo&#45;&gt;Calculator_rightTriangleCalculatorSm_idle</title>
<g id="a_edge19"><a xlink:title="From enterinfo to idle on reset">
<path fill="none" stroke="black" d="M977.943,-229.713C980.735,-241.831 984.538,-258.335 987.742,-272.24"/>
<polygon fill="black" stroke="black" points="984.393,-273.292 990.049,-282.251 991.214,-271.721 984.393,-273.292"/>
</a>
</g>
<text text-anchor="middle" x="999.212" y="-251.8" font-family="Times,serif" font-size="14.00">reset</text>
</g>
<!-- Calculator_rightTriangleCalculatorSm_checkinfo -->
<g id="node12" class="node"><title>Calculator_rightTriangleCalculatorSm_checkinfo</title>
<g id="a_node12"><a xlink:title="Class Calculator, SM rightTriangleCalculatorSm, State checkinfo">
<path fill="none" stroke="black" d="M987,-140.8C987,-140.8 939,-140.8 939,-140.8 933,-140.8 927,-134.8 927,-128.8 927,-128.8 927,-116.8 927,-116.8 927,-110.8 933,-104.8 939,-104.8 939,-104.8 987,-104.8 987,-104.8 993,-104.8 999,-110.8 999,-116.8 999,-116.8 999,-128.8 999,-128.8 999,-134.8 993,-140.8 987,-140.8"/>
<text text-anchor="middle" x="963" y="-118.6" font-family="Times,serif" font-size="14.00">checkinfo</text>
</a>
</g>
</g>
<!-- Calculator_rightTriangleCalculatorSm_enterinfo&#45;&gt;Calculator_rightTriangleCalculatorSm_checkinfo -->
<g id="edge24" class="edge"><title>Calculator_rightTriangleCalculatorSm_enterinfo&#45;&gt;Calculator_rightTriangleCalculatorSm_checkinfo</title>
<g id="a_edge24"><a xlink:title="From enterinfo to checkinfo on calculate">
<path fill="none" stroke="black" d="M937.689,-197.2C928.417,-191.941 919.575,-184.882 914.255,-175.6 908.392,-165.371 913.683,-155.567 922.623,-147.293"/>
<polygon fill="black" stroke="black" points="924.837,-150.004 930.432,-141.007 920.447,-144.551 924.837,-150.004"/>
</a>
</g>
<text text-anchor="middle" x="939.872" y="-163" font-family="Times,serif" font-size="14.00">calculate</text>
</g>
<!-- Calculator_rightTriangleCalculatorSm_checkinfo&#45;&gt;Calculator_rightTriangleCalculatorSm_enterinfo -->
<g id="edge22" class="edge"><title>Calculator_rightTriangleCalculatorSm_checkinfo&#45;&gt;Calculator_rightTriangleCalculatorSm_enterinfo</title>
<g id="a_edge22"><a xlink:title="From checkinfo to enterinfo on check&#13;Guard: &#160;[!pass]">
<path fill="none" stroke="black" d="M965.169,-140.913C966.704,-153.031 968.796,-169.535 970.558,-183.44"/>
<polygon fill="black" stroke="black" points="967.097,-183.971 971.827,-193.451 974.042,-183.09 967.097,-183.971"/>
</a>
</g>
<text text-anchor="middle" x="1007.11" y="-163" font-family="Times,serif" font-size="14.00">check [!pass]</text>
</g>
<!-- Calculator_rightTriangleCalculatorSm_result -->
<g id="node13" class="node"><title>Calculator_rightTriangleCalculatorSm_result</title>
<g id="a_node13"><a xlink:title="Class Calculator, SM rightTriangleCalculatorSm, State result">
<path fill="none" stroke="black" d="M1063,-52C1063,-52 1015,-52 1015,-52 1009,-52 1003,-46 1003,-40 1003,-40 1003,-28 1003,-28 1003,-22 1009,-16 1015,-16 1015,-16 1063,-16 1063,-16 1069,-16 1075,-22 1075,-28 1075,-28 1075,-40 1075,-40 1075,-46 1069,-52 1063,-52"/>
<text text-anchor="middle" x="1039" y="-29.8" font-family="Times,serif" font-size="14.00">result</text>
</a>
</g>
</g>
<!-- Calculator_rightTriangleCalculatorSm_checkinfo&#45;&gt;Calculator_rightTriangleCalculatorSm_result -->
<g id="edge25" class="edge"><title>Calculator_rightTriangleCalculatorSm_checkinfo&#45;&gt;Calculator_rightTriangleCalculatorSm_result</title>
<g id="a_edge25"><a xlink:title="From checkinfo to result on check&#13;Guard: &#160;[pass]">
<path fill="none" stroke="black" d="M959.165,-104.591C957.744,-93.805 957.827,-80.0852 964.431,-70 971.225,-59.625 981.973,-52.2628 993.217,-47.0627"/>
<polygon fill="black" stroke="black" points="994.77,-50.2089 1002.7,-43.1845 992.121,-43.7295 994.77,-50.2089"/>
</a>
</g>
<text text-anchor="middle" x="999.784" y="-74.2" font-family="Times,serif" font-size="14.00">check [pass]</text>
</g>
<!-- Calculator_rightTriangleCalculatorSm_result&#45;&gt;Calculator_rightTriangleCalculatorSm_idle -->
<g id="edge20" class="edge"><title>Calculator_rightTriangleCalculatorSm_result&#45;&gt;Calculator_rightTriangleCalculatorSm_idle</title>
<g id="a_edge20"><a xlink:title="From result to idle on reset">
<path fill="none" stroke="black" d="M1069.14,-52.0335C1084.76,-62.6741 1102.33,-77.9398 1111,-96.8 1119.17,-114.569 1120.5,-123.708 1111,-140.8 1096.76,-166.411 1080.71,-161.546 1055,-175.6 1045.93,-180.558 1040.46,-177.533 1034,-185.6 1011.54,-213.636 1029.75,-231.213 1016,-264.4 1014.74,-267.45 1013.22,-270.534 1011.57,-273.541"/>
<polygon fill="black" stroke="black" points="1008.51,-271.839 1006.41,-282.222 1014.53,-275.419 1008.51,-271.839"/>
</a>
</g>
<text text-anchor="middle" x="1109.21" y="-163" font-family="Times,serif" font-size="14.00">reset</text>
</g>
<!-- Calculator_rightTriangleCalculatorSm_result&#45;&gt;Calculator_rightTriangleCalculatorSm_enterinfo -->
<g id="edge23" class="edge"><title>Calculator_rightTriangleCalculatorSm_result&#45;&gt;Calculator_rightTriangleCalculatorSm_enterinfo</title>
<g id="a_edge23"><a xlink:title="From result to enterinfo on entervalue">
<path fill="none" stroke="black" d="M1041.24,-52.0964C1045.71,-87.324 1054.7,-165.551 1048,-175.6 1041.59,-185.215 1034.51,-180.791 1024,-185.6 1021.56,-186.716 1019.07,-187.883 1016.55,-189.076"/>
<polygon fill="black" stroke="black" points="1014.95,-185.967 1007.47,-193.47 1017.99,-192.269 1014.95,-185.967"/>
</a>
</g>
<text text-anchor="middle" x="1079.15" y="-118.6" font-family="Times,serif" font-size="14.00">entervalue</text>
</g>
<!-- start_Calculator_rightTriangleCalculatorSmUnit -->
<g id="node14" class="node"><title>start_Calculator_rightTriangleCalculatorSmUnit</title>
<g id="a_node14"><a xlink:title="Class Calculator, SM rightTriangleCalculatorSm, State unit.start">
<ellipse fill="black" stroke="black" cx="1086" cy="-362.6" rx="7.2" ry="7.2"/>
</a>
</g>
</g>
<!-- Calculator_rightTriangleCalculatorSmUnit_degree -->
<g id="node15" class="node"><title>Calculator_rightTriangleCalculatorSmUnit_degree</title>
<g id="a_node15"><a xlink:title="Class Calculator, SM rightTriangleCalculatorSm, State unit.degree">
<path fill="none" stroke="black" d="M1110,-318.4C1110,-318.4 1062,-318.4 1062,-318.4 1056,-318.4 1050,-312.4 1050,-306.4 1050,-306.4 1050,-294.4 1050,-294.4 1050,-288.4 1056,-282.4 1062,-282.4 1062,-282.4 1110,-282.4 1110,-282.4 1116,-282.4 1122,-288.4 1122,-294.4 1122,-294.4 1122,-306.4 1122,-306.4 1122,-312.4 1116,-318.4 1110,-318.4"/>
<text text-anchor="middle" x="1086" y="-296.2" font-family="Times,serif" font-size="14.00">degree</text>
</a>
</g>
</g>
<!-- start_Calculator_rightTriangleCalculatorSmUnit&#45;&gt;Calculator_rightTriangleCalculatorSmUnit_degree -->
<g id="edge26" class="edge"><title>start_Calculator_rightTriangleCalculatorSmUnit&#45;&gt;Calculator_rightTriangleCalculatorSmUnit_degree</title>
<g id="a_edge26"><a xlink:title="start to unit.degree">
<path fill="none" stroke="black" d="M1086,-355.158C1086,-348.787 1086,-338.597 1086,-328.793"/>
<polygon fill="black" stroke="black" points="1089.5,-328.505 1086,-318.505 1082.5,-328.505 1089.5,-328.505"/>
</a>
</g>
</g>
<!-- Calculator_rightTriangleCalculatorSmUnit_radians -->
<g id="node16" class="node"><title>Calculator_rightTriangleCalculatorSmUnit_radians</title>
<g id="a_node16"><a xlink:title="Class Calculator, SM rightTriangleCalculatorSm, State unit.radians">
<path fill="none" stroke="black" d="M1110,-229.6C1110,-229.6 1062,-229.6 1062,-229.6 1056,-229.6 1050,-223.6 1050,-217.6 1050,-217.6 1050,-205.6 1050,-205.6 1050,-199.6 1056,-193.6 1062,-193.6 1062,-193.6 1110,-193.6 1110,-193.6 1116,-193.6 1122,-199.6 1122,-205.6 1122,-205.6 1122,-217.6 1122,-217.6 1122,-223.6 1116,-229.6 1110,-229.6"/>
<text text-anchor="middle" x="1086" y="-207.4" font-family="Times,serif" font-size="14.00">radians</text>
</a>
</g>
</g>
<!-- Calculator_rightTriangleCalculatorSmUnit_degree&#45;&gt;Calculator_rightTriangleCalculatorSmUnit_radians -->
<g id="edge28" class="edge"><title>Calculator_rightTriangleCalculatorSmUnit_degree&#45;&gt;Calculator_rightTriangleCalculatorSmUnit_radians</title>
<g id="a_edge28"><a xlink:title="From unit.degree to unit.radians on rad">
<path fill="none" stroke="black" d="M1072.58,-282.156C1069.13,-276.765 1065.9,-270.599 1064.12,-264.4 1062.07,-257.223 1062.07,-254.777 1064.12,-247.6 1064.99,-244.597 1066.19,-241.602 1067.59,-238.7"/>
<polygon fill="black" stroke="black" points="1070.72,-240.275 1072.58,-229.844 1064.62,-236.84 1070.72,-240.275"/>
</a>
</g>
<text text-anchor="middle" x="1073.94" y="-251.8" font-family="Times,serif" font-size="14.00">rad</text>
</g>
<!-- Calculator_rightTriangleCalculatorSmUnit_radians&#45;&gt;Calculator_rightTriangleCalculatorSmUnit_degree -->
<g id="edge27" class="edge"><title>Calculator_rightTriangleCalculatorSmUnit_radians&#45;&gt;Calculator_rightTriangleCalculatorSmUnit_degree</title>
<g id="a_edge27"><a xlink:title="From unit.radians to unit.degree on deg">
<path fill="none" stroke="black" d="M1086,-229.713C1086,-241.831 1086,-258.335 1086,-272.24"/>
<polygon fill="black" stroke="black" points="1082.5,-272.251 1086,-282.251 1089.5,-272.251 1082.5,-272.251"/>
</a>
</g>
<text text-anchor="middle" x="1096.11" y="-251.8" font-family="Times,serif" font-size="14.00">deg</text>
</g>
<!-- start_Calculator_TrigfunctionCalculatorSm -->
<g id="node17" class="node"><title>start_Calculator_TrigfunctionCalculatorSm</title>
<g id="a_node17"><a xlink:title="Class Calculator, SM TrigfunctionCalculatorSm, State start">
<ellipse fill="black" stroke="black" cx="1255" cy="-362.6" rx="7.2" ry="7.2"/>
</a>
</g>
</g>
<!-- Calculator_TrigfunctionCalculatorSm_idle -->
<g id="node18" class="node"><title>Calculator_TrigfunctionCalculatorSm_idle</title>
<g id="a_node18"><a xlink:title="Class Calculator, SM TrigfunctionCalculatorSm, State idle">
<path fill="none" stroke="black" d="M1279,-318.4C1279,-318.4 1231,-318.4 1231,-318.4 1225,-318.4 1219,-312.4 1219,-306.4 1219,-306.4 1219,-294.4 1219,-294.4 1219,-288.4 1225,-282.4 1231,-282.4 1231,-282.4 1279,-282.4 1279,-282.4 1285,-282.4 1291,-288.4 1291,-294.4 1291,-294.4 1291,-306.4 1291,-306.4 1291,-312.4 1285,-318.4 1279,-318.4"/>
<text text-anchor="middle" x="1255" y="-296.2" font-family="Times,serif" font-size="14.00">idle</text>
</a>
</g>
</g>
<!-- start_Calculator_TrigfunctionCalculatorSm&#45;&gt;Calculator_TrigfunctionCalculatorSm_idle -->
<g id="edge29" class="edge"><title>start_Calculator_TrigfunctionCalculatorSm&#45;&gt;Calculator_TrigfunctionCalculatorSm_idle</title>
<g id="a_edge29"><a xlink:title="start to idle">
<path fill="none" stroke="black" d="M1255,-355.158C1255,-348.787 1255,-338.597 1255,-328.793"/>
<polygon fill="black" stroke="black" points="1258.5,-328.505 1255,-318.505 1251.5,-328.505 1258.5,-328.505"/>
</a>
</g>
</g>
<!-- Calculator_TrigfunctionCalculatorSm_enterinfo -->
<g id="node19" class="node"><title>Calculator_TrigfunctionCalculatorSm_enterinfo</title>
<g id="a_node19"><a xlink:title="Class Calculator, SM TrigfunctionCalculatorSm, State enterinfo">
<path fill="none" stroke="black" d="M1217,-229.6C1217,-229.6 1169,-229.6 1169,-229.6 1163,-229.6 1157,-223.6 1157,-217.6 1157,-217.6 1157,-205.6 1157,-205.6 1157,-199.6 1163,-193.6 1169,-193.6 1169,-193.6 1217,-193.6 1217,-193.6 1223,-193.6 1229,-199.6 1229,-205.6 1229,-205.6 1229,-217.6 1229,-217.6 1229,-223.6 1223,-229.6 1217,-229.6"/>
<text text-anchor="middle" x="1193" y="-207.4" font-family="Times,serif" font-size="14.00">enterinfo</text>
</a>
</g>
</g>
<!-- Calculator_TrigfunctionCalculatorSm_idle&#45;&gt;Calculator_TrigfunctionCalculatorSm_enterinfo -->
<g id="edge32" class="edge"><title>Calculator_TrigfunctionCalculatorSm_idle&#45;&gt;Calculator_TrigfunctionCalculatorSm_enterinfo</title>
<g id="a_edge32"><a xlink:title="From idle to enterinfo on entervalue">
<path fill="none" stroke="black" d="M1218.7,-293.655C1201.39,-288.892 1182.2,-280.209 1171.7,-264.4 1166.43,-256.466 1168.31,-247.018 1172.64,-238.377"/>
<polygon fill="black" stroke="black" points="1175.67,-240.131 1177.85,-229.762 1169.68,-236.511 1175.67,-240.131"/>
</a>
</g>
<text text-anchor="middle" x="1201.15" y="-251.8" font-family="Times,serif" font-size="14.00">entervalue</text>
</g>
<!-- Calculator_TrigfunctionCalculatorSm_enterinfo&#45;&gt;Calculator_TrigfunctionCalculatorSm_idle -->
<g id="edge30" class="edge"><title>Calculator_TrigfunctionCalculatorSm_enterinfo&#45;&gt;Calculator_TrigfunctionCalculatorSm_idle</title>
<g id="a_edge30"><a xlink:title="From enterinfo to idle on reset">
<path fill="none" stroke="black" d="M1217,-229.767C1223.12,-234.979 1229.29,-241.071 1234,-247.6 1239.38,-255.068 1243.66,-264.115 1246.91,-272.546"/>
<polygon fill="black" stroke="black" points="1243.63,-273.765 1250.26,-282.027 1250.23,-271.432 1243.63,-273.765"/>
</a>
</g>
<text text-anchor="middle" x="1257.21" y="-251.8" font-family="Times,serif" font-size="14.00">reset</text>
</g>
<!-- Calculator_TrigfunctionCalculatorSm_result -->
<g id="node20" class="node"><title>Calculator_TrigfunctionCalculatorSm_result</title>
<g id="a_node20"><a xlink:title="Class Calculator, SM TrigfunctionCalculatorSm, State result">
<path fill="none" stroke="black" d="M1272,-140.8C1272,-140.8 1224,-140.8 1224,-140.8 1218,-140.8 1212,-134.8 1212,-128.8 1212,-128.8 1212,-116.8 1212,-116.8 1212,-110.8 1218,-104.8 1224,-104.8 1224,-104.8 1272,-104.8 1272,-104.8 1278,-104.8 1284,-110.8 1284,-116.8 1284,-116.8 1284,-128.8 1284,-128.8 1284,-134.8 1278,-140.8 1272,-140.8"/>
<text text-anchor="middle" x="1248" y="-118.6" font-family="Times,serif" font-size="14.00">result</text>
</a>
</g>
</g>
<!-- Calculator_TrigfunctionCalculatorSm_enterinfo&#45;&gt;Calculator_TrigfunctionCalculatorSm_result -->
<g id="edge34" class="edge"><title>Calculator_TrigfunctionCalculatorSm_enterinfo&#45;&gt;Calculator_TrigfunctionCalculatorSm_result</title>
<g id="a_edge34"><a xlink:title="From enterinfo to result on calculate">
<path fill="none" stroke="black" d="M1178.26,-193.496C1171.1,-183.008 1165.37,-169.573 1172.26,-158.8 1179.21,-147.918 1190.51,-140.371 1202.29,-135.155"/>
<polygon fill="black" stroke="black" points="1203.72,-138.354 1211.76,-131.453 1201.17,-131.835 1203.72,-138.354"/>
</a>
</g>
<text text-anchor="middle" x="1197.87" y="-163" font-family="Times,serif" font-size="14.00">calculate</text>
</g>
<!-- Calculator_TrigfunctionCalculatorSm_result&#45;&gt;Calculator_TrigfunctionCalculatorSm_idle -->
<g id="edge31" class="edge"><title>Calculator_TrigfunctionCalculatorSm_result&#45;&gt;Calculator_TrigfunctionCalculatorSm_idle</title>
<g id="a_edge31"><a xlink:title="From result to idle on reset">
<path fill="none" stroke="black" d="M1281.22,-140.899C1287.57,-145.781 1293.36,-151.735 1297,-158.8 1300.42,-165.439 1301.32,-169.507 1297,-175.6 1289.26,-186.529 1276.32,-174.671 1268.58,-185.6 1257.27,-201.558 1265.72,-210.254 1268.58,-229.6 1269.79,-237.866 1272.78,-239.334 1274,-247.6 1275.09,-254.987 1275.84,-257.163 1274,-264.4 1273.24,-267.386 1272.17,-270.393 1270.92,-273.324"/>
<polygon fill="black" stroke="black" points="1267.78,-271.788 1266.47,-282.302 1274.05,-274.895 1267.78,-271.788"/>
</a>
</g>
<text text-anchor="middle" x="1282.21" y="-207.4" font-family="Times,serif" font-size="14.00">reset</text>
</g>
<!-- Calculator_TrigfunctionCalculatorSm_result&#45;&gt;Calculator_TrigfunctionCalculatorSm_enterinfo -->
<g id="edge33" class="edge"><title>Calculator_TrigfunctionCalculatorSm_result&#45;&gt;Calculator_TrigfunctionCalculatorSm_enterinfo</title>
<g id="a_edge33"><a xlink:title="From result to enterinfo on entervalue">
<path fill="none" stroke="black" d="M1242.48,-140.887C1238.68,-151.369 1233.06,-164.804 1226,-175.6 1223.69,-179.139 1221,-182.647 1218.17,-185.998"/>
<polygon fill="black" stroke="black" points="1215.53,-183.699 1211.45,-193.473 1220.74,-188.382 1215.53,-183.699"/>
</a>
</g>
<text text-anchor="middle" x="1264.15" y="-163" font-family="Times,serif" font-size="14.00">entervalue</text>
</g>
<!-- start_Calculator_TrigfunctionCalculatorSmUnit -->
<g id="node21" class="node"><title>start_Calculator_TrigfunctionCalculatorSmUnit</title>
<g id="a_node21"><a xlink:title="Class Calculator, SM TrigfunctionCalculatorSm, State unit.start">
<ellipse fill="black" stroke="black" cx="1347" cy="-362.6" rx="7.2" ry="7.2"/>
</a>
</g>
</g>
<!-- Calculator_TrigfunctionCalculatorSmUnit_degree -->
<g id="node22" class="node"><title>Calculator_TrigfunctionCalculatorSmUnit_degree</title>
<g id="a_node22"><a xlink:title="Class Calculator, SM TrigfunctionCalculatorSm, State unit.degree">
<path fill="none" stroke="black" d="M1371,-318.4C1371,-318.4 1323,-318.4 1323,-318.4 1317,-318.4 1311,-312.4 1311,-306.4 1311,-306.4 1311,-294.4 1311,-294.4 1311,-288.4 1317,-282.4 1323,-282.4 1323,-282.4 1371,-282.4 1371,-282.4 1377,-282.4 1383,-288.4 1383,-294.4 1383,-294.4 1383,-306.4 1383,-306.4 1383,-312.4 1377,-318.4 1371,-318.4"/>
<text text-anchor="middle" x="1347" y="-296.2" font-family="Times,serif" font-size="14.00">degree</text>
</a>
</g>
</g>
<!-- start_Calculator_TrigfunctionCalculatorSmUnit&#45;&gt;Calculator_TrigfunctionCalculatorSmUnit_degree -->
<g id="edge35" class="edge"><title>start_Calculator_TrigfunctionCalculatorSmUnit&#45;&gt;Calculator_TrigfunctionCalculatorSmUnit_degree</title>
<g id="a_edge35"><a xlink:title="start to unit.degree">
<path fill="none" stroke="black" d="M1347,-355.158C1347,-348.787 1347,-338.597 1347,-328.793"/>
<polygon fill="black" stroke="black" points="1350.5,-328.505 1347,-318.505 1343.5,-328.505 1350.5,-328.505"/>
</a>
</g>
</g>
<!-- Calculator_TrigfunctionCalculatorSmUnit_radians -->
<g id="node23" class="node"><title>Calculator_TrigfunctionCalculatorSmUnit_radians</title>
<g id="a_node23"><a xlink:title="Class Calculator, SM TrigfunctionCalculatorSm, State unit.radians">
<path fill="none" stroke="black" d="M1371,-229.6C1371,-229.6 1323,-229.6 1323,-229.6 1317,-229.6 1311,-223.6 1311,-217.6 1311,-217.6 1311,-205.6 1311,-205.6 1311,-199.6 1317,-193.6 1323,-193.6 1323,-193.6 1371,-193.6 1371,-193.6 1377,-193.6 1383,-199.6 1383,-205.6 1383,-205.6 1383,-217.6 1383,-217.6 1383,-223.6 1377,-229.6 1371,-229.6"/>
<text text-anchor="middle" x="1347" y="-207.4" font-family="Times,serif" font-size="14.00">radians</text>
</a>
</g>
</g>
<!-- Calculator_TrigfunctionCalculatorSmUnit_degree&#45;&gt;Calculator_TrigfunctionCalculatorSmUnit_radians -->
<g id="edge37" class="edge"><title>Calculator_TrigfunctionCalculatorSmUnit_degree&#45;&gt;Calculator_TrigfunctionCalculatorSmUnit_radians</title>
<g id="a_edge37"><a xlink:title="From unit.degree to unit.radians on rad">
<path fill="none" stroke="black" d="M1333.58,-282.156C1330.13,-276.765 1326.9,-270.599 1325.12,-264.4 1323.07,-257.223 1323.07,-254.777 1325.12,-247.6 1325.99,-244.597 1327.19,-241.602 1328.59,-238.7"/>
<polygon fill="black" stroke="black" points="1331.72,-240.275 1333.58,-229.844 1325.62,-236.84 1331.72,-240.275"/>
</a>
</g>
<text text-anchor="middle" x="1334.94" y="-251.8" font-family="Times,serif" font-size="14.00">rad</text>
</g>
<!-- Calculator_TrigfunctionCalculatorSmUnit_radians&#45;&gt;Calculator_TrigfunctionCalculatorSmUnit_degree -->
<g id="edge36" class="edge"><title>Calculator_TrigfunctionCalculatorSmUnit_radians&#45;&gt;Calculator_TrigfunctionCalculatorSmUnit_degree</title>
<g id="a_edge36"><a xlink:title="From unit.radians to unit.degree on deg">
<path fill="none" stroke="black" d="M1347,-229.713C1347,-241.831 1347,-258.335 1347,-272.24"/>
<polygon fill="black" stroke="black" points="1343.5,-272.251 1347,-282.251 1350.5,-272.251 1343.5,-272.251"/>
</a>
</g>
<text text-anchor="middle" x="1357.11" y="-251.8" font-family="Times,serif" font-size="14.00">deg</text>
</g>
</g>
</svg>
